<?xml version="1.0" encoding="UTF-8"?>
<!-- AlKindy symbol — Musnad-script "كندي" — canonical mark (gold). Shapes identical to brand/source/image_2.svg; technical cleanup only. -->
<svg xmlns="http://www.w3.org/2000/svg" width="222.9541" height="355.26813" viewBox="0 0 222.9541 355.26812">
  <g fill="#c4a265" transform="translate(-28240.039,-1012.156) scale(2.1445714)">
    <path d="m 0,0 v -6.16 c 0,-1.873 1.906,-3.143 3.634,-2.422 l 1.54,0.642 c 0.166,0.07 0.324,0.156 0.472,0.257 l 4.005,2.742 c 1.65,1.13 1.481,3.616 -0.307,4.512 L 3.798,2.346 C 2.054,3.22 0,1.951 0,0 m 27.667,23.143 v -52.136 c 0,-1.449 -1.175,-2.624 -2.624,-2.624 h -0.9 c -1.449,0 -2.624,1.175 -2.624,2.624 v 19.098 c 0,1.943 -2.031,3.198 -3.783,2.357 -6.983,-3.349 -13.193,-8.901 -20.483,-11.056 -1.695,-0.501 -3.401,0.743 -3.401,2.51 v 26.317 c 0,1.768 1.706,3.011 3.401,2.51 7.29,-2.155 13.5,-7.706 20.483,-11.056 1.752,-0.84 3.783,0.415 3.783,2.358 v 19.098 c 0,1.449 1.175,2.624 2.624,2.624 h 0.9 c 1.449,0 2.624,-1.175 2.624,-2.624" transform="matrix(1.3333333,0,0,-1.3333333,13234.963,595.4652)"/>
    <path d="m 0,0 c 0,0.701 0.287,1.364 0.779,1.864 4.431,4.499 12.399,21.787 14.797,23.186 0.592,0.345 1.523,0.397 2.548,0.354 1.983,-0.082 3.147,-2.27 2.126,-3.972 L 9.558,3.62 c -1.049,-1.749 0.211,-3.975 2.25,-3.975 h 19.384 c 1.449,0 2.623,-1.174 2.623,-2.624 v -26.518 c 0,-1.449 -1.174,-2.624 -2.623,-2.624 h -0.901 c -1.449,0 -2.624,1.175 -2.624,2.624 v 21.395 c 0,0.696 -0.276,1.363 -0.768,1.855 -0.492,0.492 -1.16,0.769 -1.856,0.769 H 8.772 c -1.449,0 -2.624,-1.175 -2.624,-2.624 v -21.395 c 0,-1.449 -1.174,-2.624 -2.624,-2.624 h -0.9 C 1.175,-32.121 0,-30.946 0,-29.497 Z" transform="matrix(1.3333333,0,0,-1.3333333,13227.026,505.85107)"/>
    <path d="M 0,0 C 7.322,-5.9 17.268,4.391 10.506,11.011 3.203,18.16 -7.32,5.899 0,0 m 1.753,-9.151 c 0,0.9 -0.461,1.732 -1.22,2.217 -2.84,1.815 -9.545,5.237 -8.986,13.165 1.371,19.454 33.132,15.842 25.789,-6.249 -1.392,-4.188 -8.41,-7.384 -8.41,-7.976 v -28.629 c 0,-1.449 -1.174,-2.624 -2.624,-2.624 H 4.377 c -1.449,0 -2.624,1.175 -2.624,2.624 z" transform="matrix(1.3333333,0,0,-1.3333333,13181.369,585.29173)"/>
    <path d="m 0,0 v -20.37 c 0,-1.449 1.175,-2.624 2.624,-2.624 h 16.271 c 1.449,0 2.624,-1.175 2.624,-2.624 v -26.518 c 0,-1.449 -1.175,-2.624 -2.624,-2.624 H 16.97 c -1.449,0 -2.624,1.175 -2.624,2.624 v 21.395 c 0,1.449 -1.175,2.624 -2.624,2.624 H -3.524 c -1.45,0 -2.624,1.174 -2.624,2.624 V 0 c 0,1.449 1.174,2.624 2.624,2.624 h 0.9 C -1.175,2.624 0,1.449 0,0" transform="matrix(1.3333333,0,0,-1.3333333,13176.348,475.66533)"/>
  </g>
</svg>
