<?xml version="1.0" encoding="UTF-8" standalone="no"?>
<!-- Created with Inkscape (http://www.inkscape.org/) -->

<svg
   width="51.053928mm"
   height="13.903222mm"
   viewBox="0 0 51.053928 13.903222"
   version="1.1"
   id="svg1"
   xml:space="preserve"
   xmlns="http://www.w3.org/2000/svg"
   xmlns:svg="http://www.w3.org/2000/svg"><defs
     id="defs1" /><g
     id="layer1"
     transform="translate(70.358644,-293.58438)"><g
       id="g6-8-9-6"
       transform="translate(-149.83167,42.140711)"
       style="fill:#ffffff"><path
         d="m 127.77952,260.87853 v 1.4341 l 0.75479,0.40758 h 1.99265 v -2.26437 h -1.99265 z m -1.90206,0 v 1.4341 l 0.75479,0.40758 h 1.99264 v -2.26437 h -1.99264 z m -1.90207,0 v 1.4341 l 0.75479,0.40758 h 1.99265 v -2.26437 h -1.99265 z m -1.66054,-5.85717 -1.01142,1.13218 1.31334,1.17747 1.01142,-1.13218 z m 0.58874,4.57402 c 0.0453,-0.51325 0.0755,-0.87555 0.0906,-1.34352 h -0.24153 c -0.15096,1.72092 -0.90575,2.20398 -2.47571,2.20398 v 0 l -0.76989,0.42269 v 1.419 l 0.76989,0.42268 v 0 0 0 0 c 1.0718,0 1.90207,-0.63402 2.20399,-1.53977 0.3321,0.96613 1.25295,1.53977 2.23418,1.53977 v -2.26437 c -1.05671,0 -1.66054,-0.3321 -1.8115,-0.86046 z m -5.28352,1.28315 v 1.4341 l 0.75479,0.40758 h 1.99264 v -2.26437 h -1.99264 z m -1.90206,0 v 1.4341 l 0.75479,0.40758 h 1.99264 v -2.26437 h -1.99264 z m -1.90207,0 v 1.4341 l 0.75479,0.40758 h 1.99265 v -2.26437 h -1.99265 z m -1.10199,-1.55487 v -0.57364 h -0.21134 c 0,1.01142 0.0302,1.96245 -0.45288,1.96245 -0.48306,0 -2.38513,-0.46797 -2.35494,-0.78498 0.0453,-0.43778 0.0755,-0.57364 0.0906,-1.0869 h -0.16605 c -0.12077,1.29824 -0.7095,1.67564 -1.64544,1.67564 -0.86046,0 -1.55487,-0.12077 -1.49449,-0.31701 0.12077,-0.43778 0.21135,-0.86046 0.22644,-1.37372 h -0.16605 c -0.13586,1.52467 -1.38882,1.63034 -2.521,1.63034 v -0.0151 l -0.75479,0.42268 v 1.4341 l 0.73969,0.42268 v 0 h 0.0151 c 0.95103,0 1.64544,-0.3472 2.05303,-0.87555 0.43778,0.63402 1.0718,0.87555 1.52467,0.87555 0.60384,0 1.37372,-0.19624 1.72093,-1.11708 0.51325,0.83026 1.31333,1.11708 1.93226,1.11708 0.58873,0 0.96613,-0.37739 1.20766,-0.95103 0.31701,0.51326 0.89065,0.95103 2.11341,0.95103 v -2.26437 c -1.7662,0 -1.85678,-0.30191 -1.85678,-1.13218 z m -5.07219,-5.22316 2.97387,-0.7095 0.16606,-0.67931 -2.97388,0.7095 z m 1.04161,2.74744 c 0.46797,0 0.81517,-0.40759 0.80008,-1.02652 0.13586,0.60384 0.42268,0.81518 0.73969,0.81518 0.49816,0 0.7095,-0.49816 0.7095,-1.29824 0,-0.27173 -0.0453,-0.54345 -0.19624,-0.98123 l -0.16605,0.0453 c 0.13586,0.3623 0.19624,0.64912 0.19624,0.87556 0,0.31701 -0.18115,0.45287 -0.54345,0.45287 -0.54345,0 -0.64912,-0.27173 -0.7246,-1.0718 l -0.18115,0.0453 c 0.13587,0.63403 0.10567,1.26805 -0.54345,1.26805 -0.42268,0 -0.61892,-0.18115 -0.61892,-0.57364 0,-0.13586 0.0151,-0.27172 0.0604,-0.43778 l -0.12077,0.0302 c -0.0604,0.19624 -0.10567,0.51325 -0.10567,0.83026 0,0.60384 0.27173,1.04161 0.69441,1.04161 z m -7.30636,4.03059 v 1.4341 l 0.75479,0.40758 h 1.99265 v -2.26437 h -1.99265 z m -1.902062,0 v 1.4341 l 0.754792,0.40758 h 1.99264 v -2.26437 h -1.99264 z m -1.902061,0 v 1.4341 l 0.75479,0.40758 h 1.992643 v -2.26437 h -1.992643 z m 0.739688,-0.42269 c -1.343526,0 -1.554868,-0.73969 -1.554868,-1.64544 v -3.87962 c 0,-1.23785 0,-2.21908 0,-3.48713 h -0.120766 l -1.04161,1.52468 v 0.12076 c 0.150958,0.34721 0.226437,1.49449 0.226437,2.67196 l 0.03019,3.9551 c 0.0151,2.12851 0.694407,3.00406 2.460616,3.00406 z m -3.607906,-2.40023 c -0.815174,0 -1.419006,-0.15096 -2.053029,-0.3623 -1.554868,-0.49816 -2.400232,-1.29824 -3.743759,-1.4341 -1.177472,-0.12076 -2.26437,1.0718 -1.7964,2.95878 h 0.120766 c 0.06038,-1.01142 0.75479,-1.4492 1.494485,-1.26805 1.011418,0.25663 2.37004,0.99632 3.955099,1.35862 -2.566286,0.83027 -4.679698,1.13219 -6.747822,1.14728 v 0 l -0.784982,0.42269 v 1.4341 l 0.784982,0.40758 v 0 c 3.456938,0 6.687439,-3.26069 8.393265,-2.89839 l 0.407586,-1.64544 z m -4.694794,7.29127 0.920844,-1.02651 -1.192569,-1.0718 -0.920844,1.02651 z m -6.732719,-4.46835 v 1.4341 l 0.75479,0.40758 h 1.992646 v -2.26437 h -1.992646 z m -1.902062,0 v 1.4341 l 0.75479,0.40758 h 1.992646 v -2.26437 h -1.992646 z m -1.902063,0 v 1.4341 l 0.75479,0.40758 h 1.992646 v -2.26437 h -1.992646 z"
         id="text12-5-8-0-7-6-1-7-9"
         style="font-weight:900;font-size:15.0958px;font-family:'The Year of The Camel';-inkscape-font-specification:'The Year of The Camel, Heavy';fill:#ffffff;stroke-width:0.371154"
         aria-label="ـــنـــسَّـــاجـــ" /></g></g></svg>
